# xmcd
#
# Track frame offsets: 
#        183
#        10895
#        24223
#        36545
#        49773
#        63043
#        75048
#        86400
#        100165
#        112283
#        128345
#        141213
#        154803
#        167660
#        180338
#        190795
#        202188
#        216163
#        228303
#        239538
#
# Disc length: 3351 seconds
#
# Revision: 1
# Processed by: cddbd v1.5.2PL0 Copyright (c) Steve Scherf et al.
# Submitted via: ExactAudioCopy v0.99pb3
#
DISCID=fe0d1514
DTITLE=Cecil Gant - Cecil Gant
DYEAR=1989
DGENRE=Blues
TTITLE0=Cecil Boogie
TTITLE1=Hit That Jive Jack
TTITLE2=Hogan's Alley
TTITLE3=I Gotta Gal
TTITLE4=Boogie Blues
TTITLE5=Little Baby You're Running Wild
TTITLE6=Long Distance
TTITLE7=Am I To Blame
TTITLE8=Rock The Boogie
TTITLE9=Blues In L.A.
TTITLE10=Cecil Boogie No.2
TTITLE11=What's On Your Worried Mind
TTITLE12=Stuff You Gotta Watch
TTITLE13=Syncopated Boogie
TTITLE14=Time Will Tell
TTITLE15=Cecil's Mop Mop
TTITLE16=Train Time Blues
TTITLE17=Ninth Street Jive
TTITLE18=Playing Myself The Blues
TTITLE19=Sloppy Joe's
EXTD=
EXTT0=
EXTT1=
EXTT2=
EXTT3=
EXTT4=
EXTT5=
EXTT6=
EXTT7=
EXTT8=
EXTT9=
EXTT10=
EXTT11=
EXTT12=
EXTT13=
EXTT14=
EXTT15=
EXTT16=
EXTT17=
EXTT18=
EXTT19=
PLAYORDER=
